<svg id="Layer_1" data-name="Layer 1" xmlns="http://www.w3.org/2000/svg" xmlns:xlink="http://www.w3.org/1999/xlink" viewBox="0 0 78 31.86"><defs><style>.cls-1{fill:#fff;}.cls-2{fill:url(#linear-gradient);}.cls-3{fill:url(#linear-gradient-2);}</style><linearGradient id="linear-gradient" x1="46.98" y1="16.82" x2="39.84" y2="23.95" gradientTransform="matrix(0.71, -0.71, 0.71, 0.71, -0.6, 38.02)" gradientUnits="userSpaceOnUse"><stop offset="0" stop-opacity="0.26"/><stop offset="0.69" stop-opacity="0"/></linearGradient><linearGradient id="linear-gradient-2" x1="24.25" y1="17.16" x2="17.12" y2="24.3" gradientTransform="matrix(0.71, -0.71, 0.71, 0.71, -7.75, 21.71)" xlink:href="#linear-gradient"/></defs><title>logo-white</title><path class="cls-1" d="M39,11.69,43.28,16,39,20.25,34.72,16Zm11.53,8.68L39,31.9,27.46,20.37,15.93,31.9,0,16,15.93,0,26,10.15,15.93,20.25,11.65,16l5.71-5.71L15.93,8.83,8.79,16l7.14,7.14L39,0,62.07,23.11l1.43-1.43L52,10.15,62.07,0,78,16l-4.4,4.4L62.07,8.83l-1.43,1.43L72.17,21.8,62.07,31.9ZM46.13,16,39,8.83,31.86,16,39,23.11Z" transform="translate(0 -0.04)"/><rect class="cls-2" x="41.65" y="16.69" width="6.22" height="10.09" transform="translate(28.48 -25.33) rotate(45)"/><rect class="cls-3" x="18.59" y="16.7" width="6.22" height="10.09" transform="translate(21.73 -9.02) rotate(45.01)"/></svg>